<mxfile host="app.diagrams.net" agent="Mozilla/5.0 (Windows NT 10.0; Win64; x64) AppleWebKit/537.36 (KHTML, like Gecko) Chrome/129.0.0.0 Safari/537.36" version="24.7.16">
  <diagram name="Page-1" id="gr4CfvuoEa2Qx28MJq57">
    <mxGraphModel dx="2625" dy="1325" grid="1" gridSize="10" guides="1" tooltips="1" connect="1" arrows="1" fold="1" page="1" pageScale="1" pageWidth="850" pageHeight="1100" math="0" shadow="0">
      <root>
        <mxCell id="0" />
        <mxCell id="1" parent="0" />
        <mxCell id="l8AZZndvWRWBADL7fDSE-1" value="" style="rounded=0;whiteSpace=wrap;html=1;" vertex="1" parent="1">
          <mxGeometry x="290" y="520" width="1920" height="1080" as="geometry" />
        </mxCell>
        <mxCell id="l8AZZndvWRWBADL7fDSE-6" value="" style="rounded=0;whiteSpace=wrap;html=1;strokeWidth=2;fillWeight=4;hachureGap=8;hachureAngle=45;fillColor=#1ba1e2;sketch=1;" vertex="1" parent="1">
          <mxGeometry x="290" y="640" width="850" height="180" as="geometry" />
        </mxCell>
        <mxCell id="l8AZZndvWRWBADL7fDSE-7" value="" style="rounded=0;whiteSpace=wrap;html=1;strokeWidth=2;fillWeight=4;hachureGap=8;hachureAngle=45;fillColor=#1ba1e2;sketch=1;" vertex="1" parent="1">
          <mxGeometry x="1360" y="640" width="850" height="180" as="geometry" />
        </mxCell>
        <mxCell id="l8AZZndvWRWBADL7fDSE-8" value="" style="rounded=0;whiteSpace=wrap;html=1;strokeWidth=2;fillWeight=4;hachureGap=8;hachureAngle=45;fillColor=#009900;sketch=1;strokeColor=#FFFFFF;" vertex="1" parent="1">
          <mxGeometry x="290" y="820" width="850" height="250" as="geometry" />
        </mxCell>
        <mxCell id="l8AZZndvWRWBADL7fDSE-9" value="" style="rounded=0;whiteSpace=wrap;html=1;strokeWidth=2;fillWeight=4;hachureGap=8;hachureAngle=45;fillColor=#009900;sketch=1;glass=0;strokeColor=#FFFFFF;" vertex="1" parent="1">
          <mxGeometry x="1360" y="820" width="850" height="250" as="geometry" />
        </mxCell>
        <mxCell id="l8AZZndvWRWBADL7fDSE-11" value="" style="rounded=0;whiteSpace=wrap;html=1;strokeWidth=2;fillWeight=4;hachureGap=8;hachureAngle=45;fillColor=#009900;sketch=1;strokeColor=#FFFFFF;" vertex="1" parent="1">
          <mxGeometry x="1360" y="1290" width="850" height="310" as="geometry" />
        </mxCell>
        <mxCell id="l8AZZndvWRWBADL7fDSE-12" value="" style="rounded=0;whiteSpace=wrap;html=1;strokeWidth=0;fillColor=#d0cee2;strokeColor=none;" vertex="1" parent="1">
          <mxGeometry x="290" y="1070" width="1920" height="220" as="geometry" />
        </mxCell>
        <mxCell id="l8AZZndvWRWBADL7fDSE-13" value="" style="rounded=0;whiteSpace=wrap;html=1;strokeWidth=0;fillColor=#d0cee2;strokeColor=none;" vertex="1" parent="1">
          <mxGeometry x="1140" y="640" width="220" height="960" as="geometry" />
        </mxCell>
        <mxCell id="l8AZZndvWRWBADL7fDSE-14" value="" style="rounded=0;whiteSpace=wrap;html=1;strokeWidth=2;fillWeight=4;hachureGap=8;hachureAngle=45;fillColor=#009900;sketch=1;strokeColor=#FFFFFF;" vertex="1" parent="1">
          <mxGeometry x="290" y="1290" width="850" height="310" as="geometry" />
        </mxCell>
        <mxCell id="l8AZZndvWRWBADL7fDSE-15" value="" style="rounded=0;whiteSpace=wrap;html=1;strokeWidth=0;fillColor=#9B99A8;strokeColor=#56517e;" vertex="1" parent="1">
          <mxGeometry x="290" y="520" width="1920" height="120" as="geometry" />
        </mxCell>
        <mxCell id="l8AZZndvWRWBADL7fDSE-16" value="" style="rounded=1;whiteSpace=wrap;html=1;strokeWidth=2;fillWeight=4;hachureGap=8;hachureAngle=45;fillColor=#99CCFF;sketch=1;strokeColor=none;glass=0;gradientColor=#0066CC;fillStyle=dashed;" vertex="1" parent="1">
          <mxGeometry x="590" y="526" width="170" height="260" as="geometry" />
        </mxCell>
        <mxCell id="l8AZZndvWRWBADL7fDSE-18" value="" style="rounded=1;whiteSpace=wrap;html=1;fillColor=#DBE1E3;" vertex="1" parent="1">
          <mxGeometry x="1426" y="525" width="240" height="110" as="geometry" />
        </mxCell>
        <mxCell id="l8AZZndvWRWBADL7fDSE-19" value="" style="rounded=1;whiteSpace=wrap;html=1;strokeColor=#DBE1E3;fillColor=#DBE1E3;" vertex="1" parent="1">
          <mxGeometry x="1915" y="525" width="240" height="110" as="geometry" />
        </mxCell>
        <mxCell id="l8AZZndvWRWBADL7fDSE-20" value="" style="rounded=1;whiteSpace=wrap;html=1;fillColor=#c0cbcd;" vertex="1" parent="1">
          <mxGeometry x="1670" y="525" width="240" height="110" as="geometry" />
        </mxCell>
        <mxCell id="l8AZZndvWRWBADL7fDSE-21" value="" style="endArrow=none;html=1;rounded=0;exitX=0;exitY=1;exitDx=0;exitDy=0;entryX=1;entryY=0;entryDx=0;entryDy=0;" edge="1" parent="1" source="l8AZZndvWRWBADL7fDSE-18" target="l8AZZndvWRWBADL7fDSE-18">
          <mxGeometry width="50" height="50" relative="1" as="geometry">
            <mxPoint x="1830" y="620" as="sourcePoint" />
            <mxPoint x="1880" y="570" as="targetPoint" />
          </mxGeometry>
        </mxCell>
        <mxCell id="l8AZZndvWRWBADL7fDSE-22" value="" style="endArrow=none;html=1;rounded=0;exitX=0;exitY=1;exitDx=0;exitDy=0;entryX=1;entryY=0;entryDx=0;entryDy=0;" edge="1" parent="1" source="l8AZZndvWRWBADL7fDSE-20" target="l8AZZndvWRWBADL7fDSE-20">
          <mxGeometry width="50" height="50" relative="1" as="geometry">
            <mxPoint x="1440" y="645" as="sourcePoint" />
            <mxPoint x="1680" y="535" as="targetPoint" />
          </mxGeometry>
        </mxCell>
        <mxCell id="l8AZZndvWRWBADL7fDSE-23" value="" style="endArrow=none;html=1;rounded=0;exitX=0;exitY=1;exitDx=0;exitDy=0;entryX=1;entryY=0;entryDx=0;entryDy=0;" edge="1" parent="1" source="l8AZZndvWRWBADL7fDSE-19" target="l8AZZndvWRWBADL7fDSE-19">
          <mxGeometry width="50" height="50" relative="1" as="geometry">
            <mxPoint x="1920" y="635" as="sourcePoint" />
            <mxPoint x="2330" y="570" as="targetPoint" />
          </mxGeometry>
        </mxCell>
        <mxCell id="l8AZZndvWRWBADL7fDSE-25" value="SP" style="ellipse;whiteSpace=wrap;html=1;aspect=fixed;fillColor=#CCCCCC;strokeColor=#E6E6E6;fontSize=60;" vertex="1" parent="1">
          <mxGeometry x="1140" y="1070" width="220" height="220" as="geometry" />
        </mxCell>
        <mxCell id="l8AZZndvWRWBADL7fDSE-34" value="Plants" style="ellipse;whiteSpace=wrap;html=1;fontSize=35;fillStyle=zigzag-line;gradientColor=#009900;fillColor=#33FF33;gradientDirection=radial;strokeColor=none;" vertex="1" parent="1">
          <mxGeometry x="345" y="865" width="740" height="160" as="geometry" />
        </mxCell>
        <mxCell id="l8AZZndvWRWBADL7fDSE-35" value="Plants" style="ellipse;whiteSpace=wrap;html=1;fontSize=35;fillStyle=zigzag-line;gradientColor=#009900;fillColor=#33FF33;gradientDirection=radial;strokeColor=none;" vertex="1" parent="1">
          <mxGeometry x="1420" y="865" width="740" height="160" as="geometry" />
        </mxCell>
        <mxCell id="l8AZZndvWRWBADL7fDSE-36" value="Plants" style="ellipse;whiteSpace=wrap;html=1;fontSize=35;fillStyle=zigzag-line;gradientColor=#009900;fillColor=#33FF33;gradientDirection=radial;strokeColor=none;" vertex="1" parent="1">
          <mxGeometry x="1415" y="1365" width="740" height="160" as="geometry" />
        </mxCell>
        <mxCell id="l8AZZndvWRWBADL7fDSE-37" value="Plants" style="ellipse;whiteSpace=wrap;html=1;fontSize=35;fillStyle=zigzag-line;gradientColor=#009900;fillColor=#33FF33;gradientDirection=radial;strokeColor=none;" vertex="1" parent="1">
          <mxGeometry x="345" y="1365" width="740" height="160" as="geometry" />
        </mxCell>
        <mxCell id="l8AZZndvWRWBADL7fDSE-38" value="&lt;font style=&quot;font-size: 25px;&quot;&gt;EnzyklopÃ¤die&lt;/font&gt;" style="shape=cylinder3;whiteSpace=wrap;html=1;boundedLbl=1;backgroundOutline=1;size=15;fillColor=#f5f5f5;strokeColor=#666666;gradientColor=#b3b3b3;gradientDirection=north;fontSize=35;" vertex="1" parent="1">
          <mxGeometry x="1175" y="740" width="150" height="210" as="geometry" />
        </mxCell>
        <mxCell id="l8AZZndvWRWBADL7fDSE-42" value="" style="shape=image;verticalLabelPosition=bottom;labelBackgroundColor=default;verticalAlign=top;aspect=fixed;imageAspect=0;image=data:image/png,iVBORw0KGgoAAAANSUhEUgAAAgAAAAIACAYAAAD0eNT6AAAACXBIWXMAAJ16AACdegHu2JUgAAAAGXRFWHRTb2Z0d2FyZQB3d3cuaW5rc2NhcGUub3Jnm+48GgAAIABJREFUeJzt3XuYXXV96P93JjcCuXDJnRAuJlwS5BZucpWLFRVbAaNHRdRq0dZT79ZWf22ttj4cpT1q26N4Hm2lWms0olLxAogiKmgUCBgCCRCIQCAJEBJIIMnk98dn7bNnhpnJnpm993et/X2/nuf7zGQys/dn9v7OWp/1vXwWSJIkSZIkSZIkSZIkSZIkSZIkSZIkSZIkSZIkSZIkSZIkSZIkSZIkSZIkSZIkSZIkSZIkSZIkSZIkSZIkSZIkSZIkSZIkSZIkSZIkSZIkSZIkSZIkSZIkSZIkSZIkSZIkSZIkSZIkSZIkSZIkSZIkSZIkSZIkSZIkSZIkSZIkSZIkSZIkSZIkSZIkSZIkSZIkSZIkSZIkSZIkSZIkSZIkSZIkSZIkSZIkSZIkSZIkSZIkSZIkSZIkSZIkSZIkSZIkSZIkSZIkSZIkSZIkScraqNQBKEtjgalFm160acAEYDQwufi+ycW/JwB7FF97EtgFbAe2FF97GngKeBzY2KNtKL5fGq79gH2Ljz0/nwTsVXzPRKJPjwL2Lr62DdgK7CT6JsXHncXX1wOPFh83FG17a38VqTcTADVbFzAbOAQ4uGi1z6cVbd82xrMTWAesAR4E1hYfHwQeAO4lEgjlZzIwDzgAOBCYW3w+t2izaO8x8nHgMSIZuB+4r2j3F+0hIvmVmsIEQMM1DlgAHAm8sPj4AuAgYHy6sIZsF5EM3A3cVbS7gRXEwVjVtz9weNEWAIcVn++fMqhheJZIZO8F7gDuLNoK4Ll0YamqTADUiKnAScAxxMn+hcChwJiUQbXBI8CtwG+LditxAFY5dRFX9McW7bji49SUQbXBDiJpvRNYDtwG/IoYSZAGZAKgvsYTB80TiZP+ScSVvcLjwDLgl8AvgJupz/GqvaYCp/RoxxBz8wqrgVuIZOAWIjF4NmlEKhUTAE0CTgdeDJxBnPzHpQyoYnYSV14/JxKCnwK/TxpR55pP9NFTiRP+YWnDqZzniJGsG4GfAD+jvpBWGTIByM9ewIuA04gD6Rl4wm+2+4DriKTgOuDhtOFU1kwiOT0X+ANifYmaZycxKvBz4CbgR8CmpBGprUwAOt8o4CjgZcB5xJXT2KQR5aWbmJe9Fvg+caB1u1f/9gTOAl5OnPQPTRtOdrYTycAPiL66PG04ajUTgM60N/AS4oR/HrEtT+XwFJEMXEMcZB9JG05y84jk9OXENNQeg3632ukhIhn4ATGSZU2NDmMC0Dn2B/4IuAA4E6/yq2AX8GtgKfBNYuogB0cDFxVtQeJY1JjtxLqBq4DvEsmBKs4EoNoOI074FwAn4PtZdbdSTwbuThxLsx1P/aQ/P3EsGpldxM6Cq4Bv03l9NRueMKpnDvA/gIuJK6mq6CaGux8gqvGtJ8r1Pt7n40biAPMs8Ezxs1uoz5vvU3wcR70U62SiuuA0nl+69YCizaFaBYruJJKBpUTRl6rpAk4mTvgXUq0FfNuIPrqW2NHRt39uKD5uLr7/aeqFeJ4oPo4lSgRD9NNxxGvSX1nh/Yi+W6tIOLP43qq4Dfgq8F+4A6ZSTACqYR/iQPoGYtV+WQ8O24irgbuBlcAq4oT/ILESPuXit1HEgbVW7vUFxAhKrTLc3gP/aHJ3E4nAV4hKhWV2EtFPL6TclfYeJ/porfLjvdRP+usSxgWRLOxPPSE4jHr1wvmUN5HtJrYYfpUYxXLNQMmZAJTXHsD5xMH0ZZTrj74buIfI/G8lrlDvJqrkdacLa0RmAkcU7RiiityRlOt1hxh6/TJxtfV44lhq9idGpN5EvH5lspXon7cWrVbueX3KoEZgNHFfjcOJ/nkc0V/nUa7j+bPEQtevAt8jLg5UMmXqMIor+7OB1xNXUFPShgPEcPzdROW7ZcRJ/3byuIHOWGKEoFZW9mTiYFuGBZbPEouxvgz8kCgH204TgFcRJ/1ziRNTas8BvyGqM9ZO+Ctp/2uTwiSibx5LrLd4EZEUlMEm4FtEMnAD1b1IkFpiFvAR4o5fuxK3p4k/0r8nRiD2a+HvXUV7EtMwf0mcgNeT/j17BLicuCJstVOAK6jfljllW0ecWD5AFLVyC2Fv04mdQf+LGJrfSvr37H7gw8SIm5StLuLKaQlx5ZLqD3I7cWV/WRFP2Ya8q+AQ4FLivawtYkzVlhWx7NnE329S8Zi3J/7dajUUPgQswhHMoRpDvG4fIl7HbaR7L3cUMSymHKNHUltMJ/4AV5PmD6+bqAf+CaLqmldNzTWaOMj+BfBjYqg+xfu8AfgkI7uR00LgX4kTb4rfYRtRnvZ9xI6Xsi5+rao9iYJhnySq/qVKBlYRfy/TW/vrSum8iFi4leKE8DjwdeAtxHSD2mcSMVf+eWKRZLvf+51ExcE/pLErrbHAa4iiLylOBvcSScf51Ld5qj3mAG+jvoK/3e/9s8DXiLU2UuV1Aa8k6r+3+49pPXBl8fze7Kc8FgIfJYbq290n7iNGn/rb8jgJeDexbbPdcf2OmII6bWgvpVpoNPF+fIbYwtvuPrEMuISYtpAqpXYwXUN7/2jWEH+w5+IfThUcTPSTm4ipmXb1k01EP5lLLMb6KDFK1O6T/kfxlr5V0EUkA5cR23/b2U8eJvpJrQCYVFrTibn1TbTvD+QO4GPEFiBV11wiGfgpsUCqHX3nOdq3AHUHcD3wPyl3gSDt3vHEce4u2nece7J4TtcJqHS6gA8SW+ja8cdwH/B3ePXUqaYD7yT2s7frANuK1k3cXvbtwNSmvkIqiwXAP9C+qaOniW2fLghVafxfWt/xnwC+AJyO259ychjwcdIsIBxuu5cYti1LIRq1XhdxO+cv0Z4R0Cva8ltJu3EBrevkzwFXE6uy3a6Xty7iNs9fpL1TTENNUE/DBDV3E4DXEaWAt9O6Pveqdv1C0kB+TPM79grgPTjfpf7VDrDX097Fg31bN7FP3wRVA5kJvJ8oJ97s/nd9G38PqV/NWj39LFFJ7ly8glLj5hGrsx+jfSf+J4gh2AVt+P3UORYR/aZZJYk3tDd86flG2olXE3uzvdrXSIwjyqpeS+tGBWplhie06XdSZ5pBHPPuZeR9UkpqOJ22G/gB8FJczarmWwB8DtjCyA+wW4D/Q/lu86vq6yJudf5Dhp+0SkkNpbNuI6rzteOubdJkhl+QqlaAxbtBqh3mE8WphrqVWkqq0Y76S2BaohiVtzFEsahG++rHsJKk0phGHCtNANrA4ef2WUvU55fabQdRMbJRdxQ/I7XbeuJYqTYwAZAkKUMmAJIkZcgEQJKkDJkASJKUIRMASZIyZAIgSVKGTAAkScqQCYAkSRkyAZAkKUMmAJIkZcgEQJKkDJkASJKUIRMASZIyZAIgSVKGTAAkScqQCYAkSRkyAZAkKUMmAJIkZcgEQJKkDJkASJKUIRMASZIyZAIgSVKGTAAkScqQCYAkSRkyAZAkKUMmAJIkZcgEQJKkDJkASJKUIRMASZIyZAIgSVKGTAAkScqQCYAkSRkakzqABhwPXATMBcYmjkWSVB5LUgfQj+3AA8BS4DeJYxlUmROA8cAVwJtSB6KmGgscDMwDDgSmFW06MKP4fA9gCjFCNaH4d80OYHPx+VPAc8D6oj0GPApsAB4GVgOrgC2t/IXUsSYT/XQeMIvomzOp99mpwLji+2rfP7rHz28FtgE7ib66lein64qPG4g+u4boqw8QJw81bnHqAAbxl8C/A38KPJs2lP6VOQHw5F9tY4CFxAjOMcB86if9kfS7McA+xee1j/N38zPriERgNXAHkZX/FhMDhcnAcURfXUj0p/lEUjoSE4oGkSzsTu3KcTVwD3ArsAy4i0giVC2jgLcA3cDbEsfSr7ImAIvw5F81s4FzgBOJ9+8Y6ge/1GYW7fQeX+sGVhIH2GXAT4A7gV3tDk5t1QUcBZwJnECc9OdTjvVQY6mPOJzX4+tPA7cR/fQW4MfESJeq4Y+BfyUSulIpawJwUeoAtFsTgZOBc4t2HJHxVkUXsKBolxRfW08kAtcB1wL3J4lMzXYI0UdPI5LU2WnDGbK9gFOLVnMf0U9rffXJBHGpMaOIc5oJQIMOTB2A+nUAcCHRmU+h93xnJ5hGzCnW5hVXAt8CvkkJ/3g1oFHASUQ/vZBIADrNIcClRdsB/JRYdHYVMeWlcjk4dQD9KWsC4Gr/8jgYeDVxMD2Ral3lj9ThwIeLdh+RCCwFfpUyKPWri7hCrp30D0gbTluNIUY2zgH+BbiJ6KdLgYcSxqU6z2lDsISYi+2kVsbtKgMZT1wFX0vMlad+7crW7gY+xMgXibXTYhr//cq8srqvWcR7cS/p+0XZ2k7ib3gx1ToBefxvkzIsfFF5HAFcBvye6LDnktcVf6MOJV6ntcDVxAG206ZDyqyL6JtLgAeJ96ITh/lHqufrtBb4DHBk0ohUKiYAGgW8gphDXEFcTTWyZUmxB/x84gC7Eng7vWsWqLkmAe8ntsrVrmzLOo1ZNjOAdwHLgWuAFyeNRqVgApCvscTq9+XAfwNnpA2n8uYBnydOTh8F9k0aTWeZTryma4DLgTkpg6m4UcDLgBuIWhiX4OhVtjohe049RL0r8fMP1RjgHcBfUL6FUt3EVryNRNW0bmBT8X/PAHsWn08kEpixxGhFrSJbGUwH/hZ4H5EQ/D1RBU5DN5N4Ld9M+UZWthGV/DYQc+3PEn10F9F3a321VqxqL+p9tSyOBb4MfAT4GPCfVO94djJRGyGVm4kdJ5XUCQmAGjeJtFf7W4gqZ7USvauJq7pa+d71xEl/OPYhhjmnEveNmEfM1dcKq+w3griHYxLwQeAC4GxiDlaNOxH4PulGUh4l+mitn64m1sbUSvluHvhHBzWGehnhWcBB1Ktk1lq7k51Dga8ALyWSreH+DapiTADy8hnad/J/iii5u6xHu6+Fz/dE0QYyk6hQeHyPNrOF8dTMIw6uZ7bhuTrFFKL+QrtO/g/Su58uY/C+NBI7gEeKdkc//98FHEa9jy4irtT37Od7m+2NwK+Bf27Dc0kDGso2kNSqsg1kDnHwadU2l83A94ih76OpxvqSg4G3EkOf62jtNqDT2vQ7DaRK2wDfReveh13EOo0vARcTV+FlN4YYZv4wcD0xxdCq1+Yh0k+rDuX4n3r4/WYaizP18b9fjgDk4zSav9hnFVEc5xpiHq5qdzK7H/hi0UYRW6TOozVFj84kCrRo95o9SrWT2OXyLeBHRL+tkh3E39ctwCeIe2ycSuxAaXbRo9nEqFXVXiMNgwlAPpp1Y54V1CviLW/SY5bBLmJI9g7gU8RB9SLqZY9HOqIxefffokIzhru3Eyvda+Vx1zfhMctiK/X7ALyXetnji2hOydkpTXgMVUAVhmnVHCtH8LObgM8R85ELiZXZnXTy789a4NPEHQQPBv6OkS3ku78ZQWViJH31bmLx5RxiUdsX6KyTf1+7iGHoDxLFkM4AriSShOHoJhbmSsm4BqD5uoh7jA9lPvBnxG2Z27EAqQpGE3uolwLP0fjruI30d6Cr0hqA4xhaCepniO1sp/f3YJnaG3gncROrofzNX5ci2D5cA5A5E4DWOJsYGh0szh1ErIsSxVgVc4kRgi3s/r3/QKIYe6pSAgCxEn13cW4k9q9PSxRjVZxFbKncXVL1NHEDrNRMADJnAtA6fwQ8zvPj20oUrpmXLrRK2g/4G+Axnv+abgf+kvSrqqF6CcBoIsHq76T1IPAeoiCUGnc08FX6vwh4iFjrUgYmAG3iIsD8fIeYK3wdcZU/ligJ+jXiJKahqV2FfopYhHU6cTfFu4jthRYAGp6dxEn+C8BriMR0E7EN7mqqt+OkDG4H3kAkpW8gbv61hdhdsISYqlJGTADy9CSxqE/Ns5Uo+POV1IF0mBXEfQDUPGuJOygqc+4CkCQpQyYAkiRlyARAkqQMmQBIkpQhEwBJkjJkAiBJUoZMACRJypAJgCRJGTIBkCQpQyYAkiRlyARAkqQMmQBIkpQhEwBJkjJkAiBJUoZMACRJypAJgCRJGTIBkCQpQyYAkiRlyARAkqQMmQBIkpShMakDkAqjgGnAVGACMBkYDexR/LtmB7C5+HwT8BywAVhffC612niin04DxgJTiq9Povcx9RngWep9divRT9e3LVJpECYAapfJwLyizS8+HkgcRGsn/tEjfI4ngUeJA+wjwCpgddFWAetG+PjKw2zqfbTWZhH9dAb1E/5w7aSeCDwGPEDvfroa2DLC55B2ywRArTAHOL5HO4Y4cLba3kU7bID/3wzcCSwr2m+AlcQBWfkZAxxB7766ENirxc87GphZtIE8DNxG7776cIvjUmZMADRSo4iD5jnA2cCJDH5gS2kS8KKi1WwBbgV+AlwH3IxTCZ1qD+AUoq+eCRwL7Jk0ooHNLtrLe3ztYeAW4PqirUwQlzqICYCGYzZwHvWTfllP+I2YCJxetL8GngZ+RhxgfwjckS40NcEi4CVEXz2V3utJqmY2cEHRAB6ingx8H9cWaIhMANSoA4ALgfOBF9O5fWcvIrk5D/gUsAb4LvAN4OfArmSRqVELgcXA64m5/E61P3BJ0bqBXxL99Bs4XaAGdOpBXM0xC7gYeDVwAjHcn5uDgHcV7X5gKXAljgyUzQnAG4mr4zmJY0mhixjhOBX4J+AXRCLwVWBjwrhUYtYBUF9dwLnAEmJ18ieJef0cT/59HQx8AFhOLMy6lFhXoDSmEO/Bb4FfAX9Onif/vrqA04DPENMES4i/af+G1YsJgGrmAB8jTvrXEkOoY5NGVG6LgCuIA+wXgOPShpOV04H/ILZ1XkEs5lP/xhN/y9cSWwz/itjOKJkAiPnElcIqYhGcV1BDMwn4E2Kb1k3AK/FKqxW6iNf258CNxNTUHkkjqp4XAJ8A1hLTWANtl1UmTADydRpwNXA3Mb/twXTkTiUWDN5GLMxyjc3IjSNeyzuJ1/aUtOF0hPHEeokVxDHgxLThKBUPUPlZAHwOOCN1IIWNRDW0WlW0R4uvPUOsuH+y+L6t1LdwTSSmJ8YB+1Gv0Da9+Hw6aZPbo4AvEyMq7yC2aWno3kDsxJiVOhCinG+tn66jXslvY/F/zxFbSKHeV0cRhakg+ux+xJbZWvXLmYy8quBIdBG7es4nkqs/xd0DWTEByMvRRMGbvXfzfc22nVg1v5ze5XlXA0+14PnGE8OdPcu5LiTmiie24PkGMo/Yn30B8L02Pm8neD9weYLnfZJY4LmS6Ku1/rqG6MfNti+9S2TPJ/5Oj2DkpbGH4g+BI4GTiHtrKAMmAHn5N9pz8r+HmKutlTG9nbgpSrs8Swxvrujz9dHA4cQCvuOJioDH0toD7Vjgi8QOgq0tfJ5OcjhwWRueZztRWe8W6n31Xtpb6+FxYgfDr/p8fS+ib9ZKFJ8OzG1xLIcQr/vbWvw8KgkTgHwcT+tWSz9CvSLZ9cQiozLaCfyuaFcWX9sHOIuoFHcOrVkYNYO4wvp6Cx67E72Z1hybdhGjULV+eiPlvenO08Si0pt6fG0+9X56FjGl0GwXE9spTVYzYAKQjyOb/Hh3E0VxlhL7sKvqCeBbRYMo/HMRUfzoJJq3ov8oTAAa9cImPtZOYtprKXAV1b4jZG1K4vPE/P0pRF+9kOaNDowHDiVG7dThTADy0Ywb3KwmKostpXMr4a0B/rFoc4iD6+uAk0f4uJYQbtxIp4u6gRuA/wK+TWfOaXdTHyF4H7GS/yKi/PH+I3xs+6qSWkJ0wkZaao3GuSRVgIVDiINGo/HW2lbipH8Wee9vXwh8mjiZDPU13EUkEiktpvFYFyeKseaDDO81/j3wcWK9Ra5GE/USvkOscRjqa7iZ9FuCh3L8PylRjDU301icqY//lWIC0BpX0Xi8q4j6APsmibS8xhMjAjfR+Gt5H+kPqlVKAKYRUzONxNoNXEOc9Nq5ar4KZgMfJqpVNvrefzpJpL2ZAGTOBKA1ZhEno8HiXEacADyY7l6t8M9gIyubKUfxmiolAACvYvAr2O3AV4i1FRrcOOCtwF0M/r7/FtgzUYw9mQBkzgSgdWYAXyOKl9Ri2wn8kLhhiIZuAbHFciu93/MbKc8JqmoJAMCZxKr9nrE9BXyWWKypoekiEqu+o1dbiYWF7ayRMRgTgDZxEWB+HiWGsN8NHEPsU7+NGCbU8KwA3gK8h9huOZ642ro/ZVAd4KdEUZwFRGGnp4j98s+kDKrCuolFkd8mXs8jiBGq5cSUizJjApCvx4AfpQ6iw2zCsr/Ntot67QY1z71FU8a8GZAkSRkyAZAkKUMmAJIkZcgEQJKkDJkASJKUIRMASZIyZAIgSVKGTAAkScqQCYAkSRkyAZAkKUMmAJIkZcgEQJKkDJkASJKUIRMASZIyZAIgSVKGTAAkScqQCYAkSRkyAZAkKUMmAJIkZcgEQJKkDI1JHYCyNq1oU4EZwPTi33sAU4gEdULx75qdwFPF508BzwHre7R1wIbi8+0t/w2Ug7FE35wKzKTeb6cB44BJxffV+mzNNmAr0A1sKj7fQPTRx4rPHwM2tvw3kPphAqBWmwIcA8wH5vVpe7XweXcAa4DVwKqirQbuBNa28HlVXQcBC+ndV+cDc2ntsXIL9X66umj3ALcDm1v4vMqcCYCaaSJwHHB80RYRB9BRCWIZQ/0gfl6f/3sUWFa03wC/Jq7KlI/9qffTWpuaKJaJRJJ8TJ+vdxOJwLIe7VbgmbZGp45lAqCRGAMcDZxbtDOIIdGymwG8omg19wHXFe164PEEcal1pgIvAk4l+uqitOE0pAs4vGgXF1/bQYwM1PrqjcQ0mDRkJgAaqjnAhcDLgdNo7TB+Ox0CXFq0ncBvgR8CS4HbEsal4RkFnED01T8gEtVOWPQ8hkheFgEfIqYIfgp8D7iKGN2SGmICoEbMBS4AFhNXUZ1wIB3MaOLkcQLw/wEPAN8BvgH8HNiVLjQNogs4Fngl8AZi+qfTTQLOL9q/Ar8k+uk3gYcSxqUKMAHQQKYQB9E3EyfCnB0IvKtoDwD/AXyRWGSo9A4H3gq8HpidOJaUuogpjlOBfwJ+AXwJWAI8nTAulVSnX8lp6BYBVxBXD/+KJ/++DiRGBe4FrgUuIbYqqr32IEakrgVWAB8g75N/X13EFN2XgEeAK4m1D9L/YwIgiHn8PwdWEiuNL6Vz5vZbpYs4oH6ZGBW4DJiVNKI8HAJ8lti1sYR4D1LsMqmSScAbiWTpVuAtVGOxrlrMBCBvU4mFRKuIg+phacOprGnE67iGuNI6Imk0nelo4rW9m0hWp6QNp7KOIUYFHgQ+CuydNBolZQKQpwOJE75Xrs01jrjSupPYPXBi2nA6wtnAj4idGG/EdUvNMgP4W+B+4BNEpUNlxj+m/LybOOnvsbtvbKGeVfruJ8qhrie2MNVKpG6jXkIVolraxOLzvYiT7Rj6LyU8l3oRoBS/Zxex/ewC4P8Qr/nOBHFU2URiseWrEsfRs0rfQ9TLTddKT28g+mmt7O8uolBPbQptn+Ljnjy/lPBM4GCin84lzQXZ3sBfAX8K/DGxlVCZMAHIy9uAT7f5OddQr2K2nDiYrmF4dfqf6PMRolLaQEYRdQvmAwuoV3w7nNjq12qjgHcSJ4S/aMPzdYpRxDa2l7bxObcTIze1vnoXcdIfboXIWnGeJwb9rrrxxPqGQ4GjqPfVdi1s3JtYU3EGsZVQGTAByMeewP9q8XPsIMrq/hi4iTiQbmjxcw5mF1H3f20RU81EYr/4ycA5wOnE69Mq7wX+hZh31e69gtaf/DcBPyH6xS1Edb1tLX7OwTxLJB13ETUnamYTicDpRF9tZUGjMcDlxDZCZcAEIB9nAvu24HFXE1XIricqkj01+LeXwhbgZ0X7FDGd8CLiAHseccBt5sryMcAfEkmAdu+CFjzmTiIp/RHRV5dRjWmZh4HvFg1iGuEsoq++ghjhaqZTiOk0KwpmwAQgH80cSryLWOT2TeLKqeqeI5KXnwJ/Q8zHXlS0ZlU+nNuEx8jF/k16nB3ADURfvYpYX1J1G4hKf98gktSTgVcTa04OatJzHIAJQBZMAPIx0j/oR4B/B74K/G7E0ZTbg8D/Ltps4LXE+okFI3hMby7UuJH21V8RlRqXAhtHHk5p7SLm638JvJ8o2vVG4sZB+wzyc7vT6LoFqSWWEJ27kZZao3EuSRVgYSIxPN9ovLuIIdJriYprY9sfcunUqiRuZmiv4y7SV1RcTOOxLk4UY81rGfrr+yTx3hybIN6yGU+9SmI3Q3sd15C+sNJQjv8nJYqx5mYaizP18b9STABa4yM0fjC9jOYNxXaaycR9AdbQ2OtZhq1VVUoAxhBz9I3E+juisl3Kba1lNp/YivoMjb2er08TZi8mAJkzAWiN0cC/MXCMDxPb1SanCrBixhLDrcsZ+DX9BbBfqgB7qFICADEPfTcDx/hzYmGlxcwaMx34ODEl0t/r2Q38Q7LoejMByJwJQGtdRGx/2kTcJexnxN3UxqcMqsJGAS8Dvk3M9T9NXMG+i/K8plVLACCmrf6GuMrfRizi+09iS5yGZyLRL39DjAo8ClxNuW4UZAKQORMAqbmqmAAoTyYAbeLwmSRJGTIBkCQpQyYAkiRlyARAkqQMmQBIkpQhEwBJkjJkAiBJUoZMACRJypAJgCRJGTIBkCQpQyYAkiRlyARAkqQMmQBIkpQhEwBJkjJkAiBJUoZMACRJypAJgCRJGTIBkCQpQyYAkiRlyARAkqQMmQBIkpShMakDUHbGAgcD84ADgWlFmw7MKD7fA5hCJKgTin/X7AA2F58/BTwHrC/aY8CjwAbgYWA1sArY0spfSB1rMtFP5wGziL45k3qfnQqMK76v9v2je/z8VmAbsJPoq1uJfrqu+LiB6LNriL76ALC9hb+P1IsJgFplDLAQOB44BphP/aQ/kn43Btin+Lz2cf5ufmYdkQisBu4AfgP8FhMDhcnAcURfXUj3K6QIAAAagElEQVT0p/lEUjoSE4oGkSzsznYiCVgN3APcCiwD7iKSCKmpTADULLOBc4ATgUXESX/CoD/RPjOLdnqPr3UDK4kD7DLgJ8CdwK52B6e26gKOAs4ETiBO+vMpx3ToWOojDuf1+PrTwG1EP70F+DEx0iWNiAmAhmsicDJwbtGOA0YljWhouoAFRbuk+Np6IhG4DrgWuD9JZGq2Q4g+ehqRpM5OG86Q7QWcWrSa+4h+WuurTyaISxVnAqChOAC4ELgIOIXe852dYBqwuGgQIwTfAr5JDMeqGkYBJxH99EIiAeg0hwCXFm0H8FNgKXAVMeUl7ZYJgHbnYODVxMH0RKp1lT9ShwMfLtp9RCKwFPhVyqDUry7iCrl20j8gbThtNYYY2TgH+BfgJqKfLgUeShiXNCxLiLnYRlpqjca5JFWAwzCeuAq+lpgrb/R3zKXdDXyIkS8Sa6fFNP77LR7gMcpoFvFe3Ev6flG2tpP4G15MrC+oiqEc/09KFGPNzTQWZymP/2VY+KLyOAK4DPg90WHPJa8r/kYdSrxOa4GriQNsp02HlFkX0TeXAA8S70UnDvOPVM/XaS3wGeDIpBGpVEwANAp4BTGHuIK4mmpky5JiD/j5xAF2JfB2etcsUHNNAt5PbJWrXdk6jdmYGcC7gOXANcCLk0ajUjAByNdYYvX7cuC/gTPShlN584DPEyenjwL7Jo2ms0wnXtM1wOXAnJTBVNwo4GXADUQtjEtw9CpbZs/5GQO8A/gLyrdQqpvYireRqJrWDWwq/u8ZYM/i84lEAjOWGK2oVWQrg+nA3wLvIxKCvyeqwGnoZhKv5Zsp38jKNqKS3wZirv1Zoo/uIvpura/WilXtRb2vlsWxwJeBjwAfA/6TiF+ZMAHIyyTSXu1vIaqc1Ur0riau6mrle9cTJ/3h2IcY5pwKzCWuyA+lXlhlvxHEPRyTgA8CFwBnE3OwatyJwPdJN5LyKNFHa/10NbE2plbKd/PAPzqoMdTLCM8CDqJeJbPW2p3sHAp8BXgpkWwN929QFWMCkJfP0L6T/1NEyd1lPdp9LXy+J4o2kJlEhcLje7SZLYynZh5xcD2zDc/VKaYQ9RfadfJ/kN79dBmD96WR2AE8UrQ7+vn/LuAw6n10EXGlvmc/39tsbwR+DfxzG55LGpDbAJtvDnHwadWWo83A94ih76OpxvqSg4G3EkOf62jtlqzT2vQ7DaRK2wDfReveh13EOo0vARcTV+FlN4bY7vZh4HpiiqFVr81DpN/54zbANnEEIB+n0fzFPquI4jjXEDXKq3Yns/uBLxZtFLFF6jxaU/ToTKJAi3av2aNUO4ldLt8CfkT02yrZQfx93QJ8grjHxqnEDpRmFz2aTYxaVe010jCYAOSjWTfmWUG9It7yJj1mGewihmTvAD5FHFQvol72eKQjGpN3/y0qNGO4ezux0r1WHnd9Ex6zLLZSvw/Ae6mXPb6IGNUaqSlNeAxVQBWGadUcK0fws5uAzxHzkQuJldmddPLvz1rg08QdBA8G/o6RLeS7vxlBZWIkffVuYvHlHGJR2xforJN/X7uIYegPEsWQzgCuJJKE4egmFuZKybgGoPm6iHuMD2U+8GfAm2jPAqQqGE3soV4KPEfjr+M20t+BrkprAI5jaCWonyG2s53e34Nlam/gncRNrIbyN39dimD7cA1A5kwAWuNsYmh0sDh3ELEuShRjVcwlRgi2sPv3/gOJYuypSgkAxEr03cW5kdi/Pi1RjFVxFrGlcndJ1dPEDbBSMwHInAlA6/wR8DjPj28rUbhmXrrQKmk/4G+Ax3j+a7od+EvSr6qG6iUAo4kEq7+T1oPAe4iCUGrc0cBX6f8i4CFirUsZmAC0iYsA8/MdYq7wdcRV/liiJOjXiJOYhqZ2FfopYhHW6cTdFO8ithdaAGh4dhIn+S8AryES003ENrirqd6OkzK4HXgDkZS+gbj51xZid8ESYqpKGTEByNOTxKI+Nc9WouDPV1IH0mFWEPcBUPOsJe6gqMy5C0CSpAyZAEiSlCETAEmSMmQCIElShkwAJEnKkAmAJEkZMgGQJClDJgCSJGXIBECSpAyZAEiSlCETAEmSMmQCIElShkwAJEnKkAmAJEkZMgGQJClDJgCSJGXIBECSpAyZAEiSlCETAEmSMmQCIElShsakDkAqjAKmAVOBCcBkYDSwR/Hvmh3A5uLzTcBzwAZgffG51GrjiX46DRgLTCm+Ponex9RngGep99mtRD9d37ZIpUGYAKhdJgPzija/+HggcRCtnfhHj/A5ngQeJQ6wjwCrgNVFWwWsG+HjKw+zqffRWptF9NMZ1E/4w7WTeiLwGPAAvfvpamDLCJ9D2i0TALXCHOD4Hu0Y4sDZansX7bAB/n8zcCewrGi/AVYSB2TlZwxwBL376kJgrxY/72hgZtEG8jBwG7376sMtjkuZMQHQSI0iDprnAGcDJzL4gS2lScCLilazBbgV+AlwHXAzTiV0qj2AU4i+eiZwLLBn0ogGNrtoL+/xtYeBW4Dri7YyQVzqICYAGo7ZwHnUT/plPeE3YiJwetH+Gnga+BlxgP0hcEe60NQEi4CXEH31VHqvJ6ma2cAFRQN4iHoy8H1cW6AhMgFQow4ALgTOB15M5/advYjk5jzgU8Aa4LvAN4CfA7uSRaZGLQQWA68n5vI71f7AJUXrBn5J9NNv4HSBGtCpB3E1xyzgYuDVwAnEcH9uDgLeVbT7gaXAlTgyUDYnAG8kro7nJI4lhS5ihONU4J+AXxCJwFeBjQnjUolZB0B9dQHnAkuI1cmfJOb1czz593Uw8AFgObEw61JiXYHSmEK8B78FfgX8OXme/PvqAk4DPkNMEywh/qb9G1YvJgCqmQN8jDjpX0sMoY5NGlG5LQKuIA6wXwCOSxtOVk4H/oPY1nkFsZhP/RtP/C1fS2wx/CtiO6NkAiDmE1cKq4hFcF5BDc0k4E+IbVo3Aa/EK61W6CJe258DNxJTU3skjah6XgB8AlhLTGMNtF1WmTAByNdpwNXA3cT8tgfTkTuVWDB4G7EwyzU2IzeOeC3vJF7bU9KG0xHGE+slVhDHgBPThqNUPEDlZwHwOeCM1IEUNhLV0GpV0R4tvvYMseL+yeL7tlLfwjWRmJ4YB+xHvULb9OLz6aRNbo8CvkyMqLyD2KaloXsDsRNjVupAiHK+tX66jnolv43F/z1HbCGFel8dRRSmguiz+xFbZmvVL2cy8qqCI9FF7Oo5n0iu/hR3D2TFBCAvRxMFb/bezfc123Zi1fxyepfnXQ081YLnG08Md/Ys57qQmCue2ILnG8g8Yn/2BcD32vi8neD9wOUJnvdJYoHnSqKv1vrrGqIfN9u+9C6RPZ/4Oz2CkZfGHoo/BI4ETiLuraEMmADk5d9oz8n/HmKutlbG9Hbipijt8iwxvLmiz9dHA4cTC/iOJyoCHktrD7RjgS8SOwi2tvB5OsnhwGVteJ7tRGW9W6j31Xtpb62Hx4kdDL/q8/W9iL5ZK1F8OjC3xbEcQrzub2vx86gkTADycTytWy39CPWKZNcTi4zKaCfwu6JdWXxtH+AsolLcObRmYdQM4grr6y147E70ZlpzbNpFjELV+umNlPemO08Ti0pv6vG1+dT76VnElEKzXUxspzRZzYAJQD6ObPLj3U0UxVlK7MOuqieAbxUNovDPRUTxo5No3or+ozABaNQLm/hYO4lpr6XAVVT7jpC1KYnPE/P3pxB99UKaNzowHjiUGLVThzMByEczbnCzmqgstpTOrYS3BvjHos0hDq6vA04e4eNaQrhxI50u6gZuAP4L+DadOafdTX2E4H3ESv6LiPLH+4/wse2rSmoJ0Qkbaak1GueSVAEWDiEOGo3GW2tbiZP+WeS9v30h8GniZDLU13AXkUiktJjGY12cKMaaDzK81/j3wMeJ9Ra5Gk3US/gOscZhqK/hZtJvCR7K8f+kRDHW3ExjcaY+/leKCUBrXEXj8a4i6gPsmyTS8hpPjAjcROOv5X2kP6hWKQGYRkzNNBJrN3ANcdJr56r5KpgNfJioVtnoe//pJJH2ZgKQOROA1phFnIwGi3MZcQLwYLp7tcI/g42sbKYcxWuqlAAAvIrBr2C3A18h1lZocOOAtwJ3Mfj7/ltgz0Qx9mQCkDkTgNaZAXyNKF5Si20n8EPihiEaugXEFsut9H7Pb6Q8J6iqJQAAZxKr9nvG9hTwWWKxpoami0is+o5ebSUWFrazRsZgTADaxEWA+XmUGMJ+N3AMsU/9NmKYUMOzAngL8B5iu+V44mrr/pRBdYCfEkVxFhCFnZ4i9ss/kzKoCusmFkV+m3g9jyBGqJYTUy7KjAlAvh4DfpQ6iA6zCcv+Ntsu6rUb1Dz3Fk0Z82ZAkiRlyARAkqQMmQBIkpQhEwBJkjJkAiBJUoZMACRJypAJgCRJGTIBkCQpQyYAkiRlyARAkqQMmQBIkpQhEwBJkjJkAiBJUoZMACRJypAJgCRJGTIBkCQpQyYAkiRlyARAkqQMmQBIkpQhEwBJkjJkAiBJUoZMACRJypAJgCRJGTIBkCQpQyYAkiRlyARAkqQMmQBIkpQhEwBJkjJkAiBJUoZMACRJypAJgCRJGTIBkCQpQyYAkiRlyARAkqQMmQBIkpQhEwBJkjJkAiBJUoZMACRJypAJgCRJGTIBkCQpQyYAkiRlaEzqAJSNqcAsYA4ws/h8H2Dvou3T4yPAFOoJ6mRgdPH5U8DOPp9vAZ4s2hM9Pt8ArAXWAb8HHgV2tOKXU8cYA8wADujxcSq9+2jt872Ifjm5+Nmen+8k+idAN7Cp+PwJevfR2ucPE/2z1l83tOKXk3oyAVCzTAReAMzr8/FgYDYwvknPM7nH5/sM+F3966Z+kF0N3Ft8rH3+aDMCVOnNIPpn375aO+k3Y2R0NL37535D/PltwCPA/fTuq7WPTzchRmXOBEBDNQ6YDywAFvb4eDjln1LqIkYeZgEn9vP/m4iD6wrgd8XHZcSBWNWzD7376ALgKGB6yqAatAeRPB8MnN3P/z9CvY/WPt6KiYGGwARAgxkLHAos6tFOIJKATjSF+u/Z0yPAb3q0X+FoQdlMAV5I7766IGlErVVLZM/t8bWdwN307qu/Aba2PTpVggmAetoPOB04s/h4FJEE5G4WcH7RatYAPwNuLNo97Q8ra4cBZxTtNOCgpNGUw2gi6VkAvLH42nbgdqKv/rT4+HiS6FQ6JgB5mw6cBJxKXEkcS/mH8cvioKLVDrSPAr8GbgKuI4Zju1ME1qEOIfroaUSCOjdtOJUxFji+aO8tvnYf0Ud/DtxArIlRhkwA8jKLmE+sXTkdnjacjjKD3qME66mPEPwEWA7sShJZ9YwCjiZO9LXRqKlJI+oshwCXFg3gLuojWTfgmpdsmAB0ti7iqv5c4JXAKcTBVa03DbiwaBAJwQ+Aq4EfUt8iprAn0T9fSbxmc9KGk5Ujivb24t8riH56HZG8unW2Q5kAdJ69iKv82tXo7LThqDCNmC54I3FAvYU4yH6XuALL0cHAS4iT/kto3lZRjUxtHcGHiHoENwD/TfTVJxPGpSYzAegMhxEH0ZcTc6Qu3Cu3McS6i1OBy4CVxAH2GmIYdufAP1ppo4kh/ZcTyelhacNRA6YCi4u2nZjWuoZIBlYljEtNYAJQXS8AXgu8hpgvrbrNxDA51Cv8PQM8Sxx4thBTGlOK76lVCtyL2JY4gbjKrmKfPrxoHwAeA74JLCEOtlVfSNhFrDd5DfBq4j2qsl1EP91C72p/m4j36mngOWIf/wSiP04qvqdWGGhvYN82xdtMY4nRxbOBy4HbiH76dWJhoSqmigfLnB1EZOKv5fl71ctqM3FwuBd4gFhg9BhxEH2MWD2/nqh81gxTiZPMNGKXw4zi8znE4qcXFJ+XdbfDdODPivYw9WTgF1RnEWEXMZ9fO+nPShtOw9YR/fQ+oq+uJ4bA11Hvs+tpTlI2lno/ndnn87lEPz2EoVcQbKdjivYJYgfMEuAbxGunCjABKL/9iQPpa4gte2VcxLedmMdeThQiqZ3w76N+Vd8uG4o22Lz6OCKZqh1kX0AUkSlblbjZwLuKtpY4uH6dKERURicRyeliyruI70ngjqLVSuveV7Rn2hjHdiLBe5jYpz+QKfTup/OIEb+FxMLJsjihaJ8EbiaSgSXE76eSMgEopz2AVwFvJhZHlelqdR1xwLqdOOHfQZxst6cMaoieIwr39Fe8ZwaRCNTaC4EjSb+u4gDgfUVbCfw78B+kP8DuTyxsfDPlmtPvJpLR5T3aHVTv6nQT8Nui9TSaSAiO6tMObmt0zzcKeFHRLgeuJfrqd2jeKJ863BJiuLORllqjcS5p4LEWAZ8hrpobfdxWtu1ELfzPAJcQVx05Gku8N+8GriRqr6d+b3YRc9DXEu/N7q4GFw/hcRfv5rHGE4tOlxB9JPXrsIu4sr8W+GgRWxXn2JthCrHt96PELpPHSf/e1N6fK4hFyrszlOP/SUN6dZrvZhqLs5Hjvwo5JQAziMVfdw7hsVrVHgeuIk50J9G5Nf+bYX/gIuDTxGhIN2nfu43APwPHDRBvMxKA44B/KZ4rdV+9hzihXEwMi6t/o4lRrEuBrxIjRqnfuzuA9zPwdJsJQOZySAAWEQewZ4bwGM1uW4irpg/h9sGRmkpceV5GjJqkTAiWEQf8nqMCw00Axhf/vjbh77OLOHEtKX6vgwZ+G9SAWiXAK4Hfk+49fZZ4T8+l99omE4DMdWoCMAl4B/WysO1u3cTJ4ePEHJ1rQFpnFvAm4L9INwy7AfgUcYU81ARgHjGHm+pq/2liCPvPiLlutUat7PKHiKp/qaZ0bieOjZMwAcheJyYAjxALetr9h/U4cRJ6EzHdoPYbTRT9+QdiMVe7Rwd2EkVbGv3+VcXPtLuv3kNMqbyUWAir9ptCbN38ImmmCzYRx8pGv98EoAN1YgLQzrYW+CxwFnHyUbnsD7yTqLVelkV0KVo3URL5Q8ChI3pF1QqjiLsIfoLY6ZO6v/TXTAA6kAnA0Nt9xGr90yhnrQD1bx9iyP1KomhS6n7U6raDuGXyuylvrQD17xDifbuJ9Itea80EoAOZADTWHqJ+0lf1TSCSgauJWgWpD67NbL8jrvRnNu3VUkoHEMnAraTtVyYAHcgEYOD2JHG1+EpcxNfJ9iNWapfpamuobQ2xK8Lh/c62kHifU6wZMAHoQCYAvduzxFXhJcTNb5SXA4mr53tIf1LfXdtIveCLU1F56SLe9yto34JnE4AOZAIQ7Ubg7eRb1UzP9yKi4M8G0p/sa+1poizxy3BUSmECcV+I79Laha4mAB0o5wSgVjLzhe38JVQ5PQv0pJoiWEmMTJT5jnVKbxbRT+7HBEANqFIC0Kz90r8g9upPaG/46gALiMWg7Sg4tJW42j+9Lb+ZOslo4HxiOnMHzemPJ7b1N3g+E4AWqFICMJJSmpuIq/1j2h61OlEry/beQ1zFTWvbb6NONpvoT2sYWb88oM1x92UC0AJVSgD+jeEdTP8MF/SpdY4hbsO6jeEfXLuBa4hbUrugT60whkhaf8HQ++dq0vdLE4AWqFICcASxCKqRWH9MbN/rShKpcjQT+BjwGI3/TT1DjEwdkSBe5eskomx5o4sG/zhNmL2YALRAlRIAiNrZA11pbQe+gsP8SmsC8CcMvpVwPfDXxJ0NpVTmEjeiGqwy5v9OFl1vJgAtULUEAOBYIu6NxNDpGqKTeiczlcloImG9ijjhP0XcBc4pKZXNvsBHgBXEhdRm4v4Z56cMqg8TgBaoYgLQk0P8ktRcqef7+1PpBMATVWt0pw5AkjpMWS/4KssEQJKkDJkASJKUIRMASZIyZAIgSVKGTAAkScqQCYAkSRkyAZAkKUMmAJIkZcgEQJKkDJkASJKUIRMASZIyZAIgSVKGTAAkScqQCYAkSRkyAZAkKUMmAJIkZcgEQJKkDJkASJKUIRMASZIyNCZ1AE2wJHUAUps8DPwA+CGwK3EsfXUBfwScA0xPHIvULvNTBzASnZAALE4dgNRG7wZuBF4LrEscS80s4LvA8akDkdQ4pwCk6jkDWAYcmzoQYCHwSzz5S5VjAiBV0/7ESMArEsZwNnATcGDCGCQNkwmAVF0TgW8T0wKj2vzclwLfB/Zu8/NKapKyJgBlW+AkldUY4NPAt4B92/B8k4GvAVcA49rwfFInKOU5rawJwIbUAUgV8yrgTmIlfqu8FLgD+B8tfA6pEz2WOoD+lDUBuCF1AFIFzSKmBL5Oc+fl9we+TGxBnNvEx5VyUcpzWrvnDRs1BrgVODJ1IFJFbQM+C3wS2DjMx9gbeD/wPmDPJsUl5eZ2YBGwM3UgfZU1AYAosHAtrjCWRuIZ4EoiGbirwZ85DPhz4E3EQkNJw3M/8AfA6tSB9KfMCQDAPsAHgFcDB+GiI2kkVgDfI4YjHwB+TyxOOoBItF8MvBxH3qSReA5YA3wDuBx4Mmk0kiprKnA9caKuUvsZMLMFr4ckSdkYA1xG+pN6o80tgpIkNdHFwFbSn+AHatuAt7Xst5ckKWPHE3P5qU/2fdvvgONa+HtLkpS9CUT1v52kP/HvBP4R2KOlv7EkSfp/jgN+QbqT/zLg5Jb/lpIk6Xm6iHn32pa+drS1wFspbyVRSZKyMQ64BFhF6078a4g7DzrcL0lSyYwFXkMU/NnByE/624H/BhYXjy1JkkpuFvBe4GrgcRo/6W8sfuY9xWNI6kBlLwUsqTm6gIXENsKDiCp9k4r/2wysI+qWLyO2GXa3P0RJkiRJkiRJkiRJkiRJkiRJkiRJkiRJkiRJkiRJkiRJkiRJkiRJkiRJkiRJkiRJkiRJkiRJkiRJkiRJkiRJkiRJkiRJkiRJkiRJkiRJkiRJkiRJkiRJkiRJkiRJkiRJkiRJkiRJkiRJkiRJkiRJkiRJkiRJkiRJkiRJkiRJkiRJkiRJkiRJkiRJkiRJkiRJkiRJkiRJkiRJkiRJkiRJkiRJkiRJkiRJkiRJkiRJkiRJkiRJkiRJkiRJkiRJkiRJkiRJkiRJkiRJkiRJkiRJktQ2/z9+rG6IH2ggkgAAAABJRU5ErkJggg==;" vertex="1" parent="1">
          <mxGeometry x="1175" y="636" width="150" height="150" as="geometry" />
        </mxCell>
        <mxCell id="l8AZZndvWRWBADL7fDSE-44" value="start level" style="rounded=1;whiteSpace=wrap;html=1;fontSize=30;fillColor=none;strokeColor=#999999;" vertex="1" parent="1">
          <mxGeometry x="1165" y="1520" width="170" height="65" as="geometry" />
        </mxCell>
      </root>
    </mxGraphModel>
  </diagram>
</mxfile>
